# xmcd
#
# Track frame offsets: 
#        150
#        19264
#        37940
#        54668
#        69038
#        87818
#        107122
#        123161
#        137935
#        153933
#
# Disc length: 2265 seconds
#
# Revision: 0
# Processed by: cddbd v1.5.2PL0 Copyright (c) Steve Scherf et al.
# Submitted via: ExactAudioCopyFreeDBPlugin 1.0
#
DISCID=7808d70a
DTITLE=Hillbilly Delux - Dirty Country
DYEAR=2009
DGENRE=Country
TTITLE0=Lesson In Loneliness
TTITLE1=Sell A Lot Of Beer
TTITLE2=Awakening
TTITLE3=Get My Name Right
TTITLE4=Dirty Country
TTITLE5=Kiss My Country Ass
TTITLE6=Where Do I Go From Goodbye
TTITLE7=People Like Me
TTITLE8=Honky Tonk History
TTITLE9=Ain't Living Long
EXTD=
EXTT0=
EXTT1=
EXTT2=
EXTT3=
EXTT4=
EXTT5=
EXTT6=
EXTT7=
EXTT8=
EXTT9=
PLAYORDER=
